<?xml version="1.0" encoding="UTF-8" standalone="no"?>
<!DOCTYPE svg PUBLIC "-//W3C//DTD SVG 1.1//EN"
 "http://www.w3.org/Graphics/SVG/1.1/DTD/svg11.dtd">
<!-- Generated by graphviz version 2.28.0 (20210313.2218)
 -->
<!-- Title: flowchart Pages: 1 -->
<svg width="449pt" height="188pt"
 viewBox="0.00 0.00 449.00 188.00" xmlns="http://www.w3.org/2000/svg" xmlns:xlink="http://www.w3.org/1999/xlink">
<g id="graph1" class="graph" transform="scale(1 1) rotate(0) translate(4 184)">
<title>flowchart</title>
<polygon fill="white" stroke="white" points="-4,5 -4,-184 446,-184 446,5 -4,5"/>
<!-- 15000 patients in the TTRIS cohort -->
<g id="node3" class="node"><title>15000 patients in the TTRIS cohort</title>
<polygon fill="none" stroke="black" points="214.02,-180 -0.0196181,-180 -0.0196181,-144 214.02,-144 214.02,-180"/>
<text text-anchor="middle" x="107" y="-157.8" font-family="Times,serif" font-size="14.00">15000 patients in the TTRIS cohort</text>
</g>
<!-- 10207 patients in other centres -->
<g id="node4" class="node"><title>10207 patients in other centres</title>
<polygon fill="none" stroke="black" points="419.382,-180 232.618,-180 232.618,-144 419.382,-144 419.382,-180"/>
<text text-anchor="middle" x="326" y="-157.8" font-family="Times,serif" font-size="14.00">10207 patients in other centres</text>
</g>
<!-- 15000 patients in the TTRIS cohort&#45;&gt;10207 patients in other centres -->
<g id="edge3" class="edge"><title>15000 patients in the TTRIS cohort&#45;&gt;10207 patients in other centres:center</title>
<path fill="none" stroke="black" d="M214.361,-162C216.969,-162 219.576,-162 222.184,-162"/>
<polygon fill="black" stroke="black" points="232.241,-162 222.241,-166.5 227.241,-162 222.241,-162 222.241,-162 222.241,-162 227.241,-162 222.241,-157.5 232.241,-162 232.241,-162"/>
</g>
<!-- 4793 patients in the KBBH cohort -->
<g id="node5" class="node"><title>4793 patients in the KBBH cohort</title>
<polygon fill="none" stroke="black" points="210.271,-108 3.72895,-108 3.72895,-72 210.271,-72 210.271,-108"/>
<text text-anchor="middle" x="107" y="-85.8" font-family="Times,serif" font-size="14.00">4793 patients in the KBBH cohort</text>
</g>
<!-- 15000 patients in the TTRIS cohort&#45;&gt;4793 patients in the KBBH cohort -->
<g id="edge4" class="edge"><title>15000 patients in the TTRIS cohort&#45;&gt;4793 patients in the KBBH cohort:center</title>
<path fill="none" stroke="black" d="M107,-143.697C107,-135.983 107,-126.712 107,-118.112"/>
<polygon fill="black" stroke="black" points="107,-108.104 111.5,-118.104 107,-113.104 107,-118.104 107,-118.104 107,-118.104 107,-113.104 102.5,-118.104 107,-108.104 107,-108.104"/>
</g>
<!-- 660 patients were not triaged green -->
<g id="node6" class="node"><title>660 patients were not triaged green</title>
<polygon fill="none" stroke="black" points="441.32,-108 228.68,-108 228.68,-72 441.32,-72 441.32,-108"/>
<text text-anchor="middle" x="335" y="-85.8" font-family="Times,serif" font-size="14.00">660 patients were not triaged green</text>
</g>
<!-- 4793 patients in the KBBH cohort&#45;&gt;660 patients were not triaged green -->
<g id="edge5" class="edge"><title>4793 patients in the KBBH cohort&#45;&gt;660 patients were not triaged green:center</title>
<path fill="none" stroke="black" d="M210.312,-90C212.941,-90 215.569,-90 218.197,-90"/>
<polygon fill="black" stroke="black" points="228.334,-90 218.334,-94.5001 223.334,-90 218.334,-90.0001 218.334,-90.0001 218.334,-90.0001 223.334,-90 218.334,-85.5001 228.334,-90 228.334,-90"/>
</g>
<!-- 4133 patients were triaged green -->
<g id="node7" class="node"><title>4133 patients were triaged green</title>
<polygon fill="none" stroke="black" points="206.028,-36 7.97242,-36 7.97242,-0 206.028,-0 206.028,-36"/>
<text text-anchor="middle" x="107" y="-13.8" font-family="Times,serif" font-size="14.00">4133 patients were triaged green</text>
</g>
<!-- 4793 patients in the KBBH cohort&#45;&gt;4133 patients were triaged green -->
<g id="edge6" class="edge"><title>4793 patients in the KBBH cohort&#45;&gt;4133 patients were triaged green:center</title>
<path fill="none" stroke="black" d="M107,-71.6966C107,-63.9827 107,-54.7125 107,-46.1124"/>
<polygon fill="black" stroke="black" points="107,-36.1043 111.5,-46.1043 107,-41.1043 107,-46.1043 107,-46.1043 107,-46.1043 107,-41.1043 102.5,-46.1044 107,-36.1043 107,-36.1043"/>
</g>
</g>
</svg>
